<svg width="116" height="52" viewBox="0 0 116 52" fill="none" xmlns="http://www.w3.org/2000/svg">
<path fill-rule="evenodd" clip-rule="evenodd" d="M28.7024 0C25.8153 0.0144442 22.9473 0.494445 20.2377 1.41657C14.0453 3.52352 8.65671 7.95319 5.81056 14.4355C3.49705 19.681 3.35376 25.6317 5.16559 30.8687C6.97777 36.1077 10.7643 40.667 16.3095 43.0385C16.4441 43.0964 16.5794 43.153 16.7147 43.2072C21.0836 44.9659 25.99 44.9827 30.2896 43.4123C34.5947 41.8405 38.3354 38.6559 40.2588 34.0159C41.7882 30.3568 41.8387 26.2089 40.531 22.5767C39.2198 18.9355 36.5129 15.7506 32.5322 14.1654C31.7935 13.8679 31.031 13.6435 30.2561 13.4891C31.1954 13.6222 32.1257 13.8567 33.0274 14.2021C36.9495 15.7218 39.7556 18.8017 41.2261 22.5348C42.6986 26.2723 42.8079 30.618 41.3329 34.5529C41.2873 34.6746 41.2407 34.7966 41.1916 34.9172C39.1559 39.9306 35.1149 43.4654 30.3032 45.2372C25.49 47.01 19.9406 47.0002 14.9819 44.9242C8.84564 42.3412 4.5438 37.3248 2.42257 31.411C0.30181 25.4986 0.373915 18.7122 2.9848 12.664C3.83597 10.4777 4.9825 8.39252 6.38532 6.47755C6.40266 6.46022 6.41652 6.43886 6.43154 6.41979C6.44108 6.40653 6.44514 6.39009 6.44286 6.37391C6.44059 6.35774 6.43217 6.34306 6.41934 6.33294C6.40652 6.32282 6.39029 6.31806 6.37403 6.31961C6.35777 6.32116 6.34273 6.3289 6.33205 6.34126C6.31472 6.35859 6.30316 6.37938 6.28583 6.39902C4.7147 8.19219 3.36642 10.1996 2.29899 12.3625C-0.486615 18.5469 -0.691319 25.5683 1.41639 31.7617C3.5234 37.9541 7.95414 43.3416 14.4364 46.1878C19.6819 48.5013 25.6326 48.6446 30.8695 46.8327C36.1086 45.0206 40.6679 41.2341 43.0394 35.6889C43.0973 35.5544 43.1538 35.4191 43.208 35.2837C44.9667 30.9149 44.9835 26.0085 43.4132 21.7088C41.8413 17.4037 38.6567 13.6629 34.0167 11.7396C30.3576 10.2101 26.2098 10.1596 22.5776 11.4674C18.9364 12.7785 15.7515 15.4855 14.1663 19.4662C13.8696 20.2029 13.6454 20.9633 13.491 21.736C13.6245 20.7991 13.8584 19.8703 14.2029 18.9709C15.7226 15.0489 18.8015 12.2427 22.5346 10.7723C26.2721 9.29957 30.6189 9.19041 34.5538 10.6654C34.6755 10.711 34.7975 10.7587 34.9181 10.8078C39.9315 12.8435 43.4662 16.8835 45.2381 21.6952C47.0109 26.5084 47.001 32.0578 44.925 37.0164C42.342 43.1527 37.3257 47.4546 31.4119 49.5758C25.4994 51.6966 18.7131 51.6245 12.6649 49.0136C10.4786 48.1624 8.39342 47.0158 6.47846 45.613C6.46113 45.5957 6.43975 45.5819 6.42068 45.5668C6.40741 45.5574 6.39104 45.5535 6.37493 45.5558C6.35883 45.5581 6.34423 45.5665 6.33416 45.5793C6.32409 45.592 6.31931 45.6082 6.32081 45.6244C6.32231 45.6406 6.32997 45.6556 6.34222 45.6663C6.35955 45.6836 6.38035 45.6952 6.4 45.7126C8.19317 47.2836 10.2005 48.6319 12.3635 49.6994C18.5478 52.4849 25.5692 52.6896 31.7626 50.582C37.955 48.4749 43.3426 44.0442 46.1887 37.5619C48.5023 32.3164 48.6456 26.3658 46.8337 21.1288C45.0216 15.8897 41.235 11.3304 35.6898 8.95886C35.5553 8.90096 35.4199 8.84452 35.2846 8.79033C33.1002 7.9109 30.7813 7.46732 28.471 7.43971C26.1607 7.41197 23.8595 7.79996 21.7097 8.58509C17.4046 10.157 13.6639 13.3416 11.7406 17.9816C10.2111 21.6407 10.1606 25.7896 11.4684 29.4218C12.7795 33.063 15.4865 36.2468 19.4671 37.832C20.2061 38.1297 20.9701 38.354 21.7453 38.5084C20.8056 38.3753 19.8739 38.142 18.9719 37.7964C15.0499 36.2767 12.2437 33.1968 10.7731 29.4637C9.30069 25.7263 9.19138 21.3795 10.6664 17.4445C10.712 17.3228 10.7597 17.2009 10.8088 17.0801C12.8444 12.0668 16.8844 8.53212 21.6961 6.76027C26.5094 4.98744 32.0587 4.99828 37.0174 7.07426C43.1536 9.6573 47.4556 14.6726 49.5767 20.5864C51.6976 26.4989 51.6254 33.2862 49.0145 39.3344C48.1633 41.5208 47.0168 43.6049 45.614 45.5199C45.5967 45.5373 45.5828 45.5586 45.5678 45.5777C45.5626 45.5842 45.5587 45.5917 45.5563 45.5998C45.554 45.6078 45.5533 45.6162 45.5542 45.6245C45.5551 45.6329 45.5577 45.6409 45.5617 45.6482C45.5657 45.6556 45.5712 45.662 45.5777 45.6672C45.5842 45.6724 45.5917 45.6764 45.5998 45.6787C45.6078 45.681 45.6162 45.6817 45.6245 45.6808C45.6329 45.6799 45.6409 45.6774 45.6483 45.6733C45.6556 45.6693 45.662 45.6639 45.6673 45.6573C45.6846 45.64 45.6962 45.618 45.7135 45.5987C47.2846 43.8054 48.6328 41.7992 49.7003 39.6362C52.4859 33.4518 52.6906 26.4304 50.5829 20.237C48.4759 14.0446 44.0452 8.65598 37.5628 5.80983C32.3174 3.49626 26.3668 3.35303 21.1298 5.16491C15.8907 6.97709 11.3315 10.7636 8.95987 16.3088C8.90197 16.4434 8.84547 16.5787 8.79127 16.714C7.0326 21.0828 7.01584 25.9893 8.58611 30.2889C10.158 34.5941 13.3425 38.3347 17.9826 40.2581C21.6417 41.7875 25.7905 41.8379 29.4227 40.5303C33.0639 39.2191 36.2478 36.5132 37.833 32.5325C38.1305 31.7938 38.355 31.0303 38.5093 30.2554C38.3762 31.1947 38.1427 32.1261 37.7974 33.0277C36.2777 36.9498 33.1977 39.7549 29.4646 41.2255C25.7273 42.6979 21.3804 42.8072 17.4455 41.3322C17.3238 41.2866 17.2019 41.2399 17.0812 41.1908C12.0679 39.1551 8.53307 35.1142 6.76128 30.3025C4.98845 25.4893 4.99925 19.9399 7.07535 14.9812C9.65827 8.84496 14.6737 4.54301 20.5875 2.42185C26.4999 0.301025 33.2872 0.373237 39.3354 2.98406C41.5218 3.83529 43.6058 4.98175 45.5209 6.38463C45.5382 6.40197 45.5596 6.41584 45.5786 6.43086C45.5918 6.4401 45.608 6.444 45.6239 6.44176C45.6398 6.43952 45.6543 6.43131 45.6644 6.4188C45.6745 6.4063 45.6795 6.39045 45.6784 6.37441C45.6772 6.35837 45.67 6.34334 45.6582 6.33241C45.6409 6.31507 45.6189 6.30237 45.5996 6.28561C43.8063 4.71448 41.799 3.36619 39.636 2.2987C36.1573 0.731848 32.4146 -0.0180272 28.7026 0.000634757L28.7024 0Z" fill="url(#paint0_radial)"/>
<path d="M27.2139 34.6537C25.7406 34.6537 24.3106 34.4717 22.9239 34.1077C21.5373 33.7437 20.4106 33.2584 19.5439 32.6517L21.2339 28.8557C22.0486 29.3931 22.9933 29.8264 24.0679 30.1557C25.1426 30.4851 26.1999 30.6497 27.2399 30.6497C29.2159 30.6497 30.2039 30.1557 30.2039 29.1677C30.2039 28.6477 29.9179 28.2664 29.3459 28.0237C28.7913 27.7637 27.8899 27.4951 26.6419 27.2177C25.2726 26.9231 24.1286 26.6111 23.2099 26.2817C22.2913 25.9351 21.5026 25.3891 20.8439 24.6437C20.1853 23.8984 19.8559 22.8931 19.8559 21.6277C19.8559 20.5184 20.1593 19.5217 20.7659 18.6377C21.3726 17.7364 22.2739 17.0257 23.4699 16.5057C24.6833 15.9857 26.1653 15.7257 27.9159 15.7257C29.1119 15.7257 30.2906 15.8644 31.4519 16.1417C32.6133 16.4017 33.6359 16.7917 34.5199 17.3117L32.9339 21.1337C31.2006 20.1977 29.5193 19.7297 27.8899 19.7297C26.8673 19.7297 26.1219 19.8857 25.6539 20.1977C25.1859 20.4924 24.9519 20.8824 24.9519 21.3677C24.9519 21.8531 25.2293 22.2171 25.7839 22.4597C26.3386 22.7024 27.2313 22.9537 28.4619 23.2137C29.8486 23.5084 30.9926 23.8291 31.8939 24.1757C32.8126 24.5051 33.6013 25.0424 34.2599 25.7877C34.9359 26.5157 35.2739 27.5124 35.2739 28.7777C35.2739 29.8697 34.9706 30.8577 34.3639 31.7417C33.7573 32.6257 32.8473 33.3364 31.6339 33.8737C30.4206 34.3937 28.9473 34.6537 27.2139 34.6537Z" fill="white"/>
<path d="M43.8139 29.3497L42.3579 30.8317V34.2897H37.4179V14.9977H42.3579V25.1117L47.4019 20.1977H53.2519L47.4019 26.2297L53.7459 34.2897H47.7659L43.8139 29.3497Z" fill="white"/>
<path d="M71.1281 20.1977L65.0441 34.8617C64.3335 36.5951 63.4668 37.8084 62.4441 38.5017C61.4215 39.2124 60.1735 39.5677 58.7001 39.5677C57.9548 39.5677 57.2008 39.4464 56.4381 39.2037C55.6928 38.9784 55.0861 38.6751 54.6181 38.2937L56.3341 34.8357C56.6115 35.0957 56.9408 35.2951 57.3221 35.4337C57.7208 35.5897 58.1195 35.6677 58.5181 35.6677C58.9861 35.6677 59.3675 35.5724 59.6621 35.3817C59.9741 35.1911 60.2341 34.8877 60.4422 34.4717L54.4101 20.1977H59.4801L62.9381 28.8037L66.4221 20.1977H71.1281Z" fill="white"/>
<path d="M79.0963 34.5237C77.5883 34.5237 76.2277 34.2117 75.0143 33.5877C73.801 32.9637 72.8477 32.0971 72.1543 30.9877C71.4783 29.8784 71.1403 28.6217 71.1403 27.2177C71.1403 25.8311 71.4783 24.5831 72.1543 23.4737C72.8477 22.3644 73.7923 21.5064 74.9883 20.8997C76.2017 20.2757 77.571 19.9637 79.0963 19.9637C80.6217 19.9637 81.991 20.2757 83.2043 20.8997C84.4177 21.5064 85.3623 22.3644 86.0383 23.4737C86.7143 24.5657 87.0523 25.8137 87.0523 27.2177C87.0523 28.6217 86.7143 29.8784 86.0383 30.9877C85.3623 32.0971 84.4177 32.9637 83.2043 33.5877C81.991 34.2117 80.6217 34.5237 79.0963 34.5237ZM79.0963 30.5977C79.963 30.5977 80.6737 30.3031 81.2283 29.7137C81.783 29.1071 82.0603 28.2751 82.0603 27.2177C82.0603 26.1777 81.783 25.3631 81.2283 24.7737C80.6737 24.1844 79.963 23.8897 79.0963 23.8897C78.2297 23.8897 77.519 24.1844 76.9643 24.7737C76.4097 25.3631 76.1323 26.1777 76.1323 27.2177C76.1323 28.2751 76.4097 29.1071 76.9643 29.7137C77.519 30.3031 78.2297 30.5977 79.0963 30.5977Z" fill="white"/>
<path d="M94.0467 21.8877C94.5494 21.2464 95.1994 20.7697 95.9967 20.4577C96.8114 20.1284 97.7387 19.9637 98.7787 19.9637V24.4097C98.3281 24.3577 97.9554 24.3317 97.6607 24.3317C96.6034 24.3317 95.7714 24.6177 95.1647 25.1897C94.5754 25.7617 94.2807 26.6371 94.2807 27.8157V34.2897H89.3407V20.1977H94.0467V21.8877Z" fill="white"/>
<path d="M115.848 20.1977V31.7157C115.848 34.3331 115.138 36.2917 113.716 37.5917C112.295 38.9091 110.25 39.5677 107.58 39.5677C106.194 39.5677 104.894 39.4117 103.68 39.0997C102.467 38.7877 101.436 38.3284 100.586 37.7217L102.38 34.2637C102.952 34.7317 103.672 35.0957 104.538 35.3557C105.422 35.6331 106.289 35.7717 107.138 35.7717C108.438 35.7717 109.392 35.4857 109.998 34.9137C110.605 34.3417 110.908 33.4924 110.908 32.3657V31.8977C109.955 33.0071 108.56 33.5617 106.722 33.5617C105.474 33.5617 104.322 33.2844 103.264 32.7297C102.207 32.1577 101.366 31.3604 100.742 30.3377C100.118 29.2977 99.8064 28.1017 99.8064 26.7497C99.8064 25.4151 100.118 24.2364 100.742 23.2137C101.366 22.1737 102.207 21.3764 103.264 20.8217C104.322 20.2497 105.474 19.9637 106.722 19.9637C108.733 19.9637 110.206 20.6137 111.142 21.9137V20.1977H115.848ZM107.892 29.6357C108.776 29.6357 109.504 29.3671 110.076 28.8297C110.666 28.2924 110.96 27.5991 110.96 26.7497C110.96 25.9004 110.674 25.2157 110.102 24.6957C109.53 24.1584 108.794 23.8897 107.892 23.8897C106.991 23.8897 106.246 24.1584 105.656 24.6957C105.084 25.2157 104.798 25.9004 104.798 26.7497C104.798 27.5991 105.093 28.2924 105.682 28.8297C106.272 29.3671 107.008 29.6357 107.892 29.6357Z" fill="white"/>
<defs>
<radialGradient id="paint0_radial" cx="0" cy="0" r="1" gradientUnits="userSpaceOnUse" gradientTransform="translate(25.9997 25.9992) rotate(90.0026) scale(27.3904 27.3909)">
<stop offset="0.328125" stop-color="#0038FF"/>
<stop offset="0.802083" stop-color="#FF0000"/>
</radialGradient>
</defs>
</svg>
